<svg xmlns="http://www.w3.org/2000/svg" xmlns:xlink="http://www.w3.org/1999/xlink" width="732" zoomAndPan="magnify" viewBox="299 81 732 489" height="489" preserveAspectRatio="xMidYMid meet" version="1.0"><defs><clipPath id="f84aa295a2"><path d="M 299.039062 81 L 1031 81 L 1031 569 L 299.039062 569 Z M 299.039062 81 " clip-rule="nonzero"/></clipPath></defs><g clip-path="url(#f84aa295a2)"><path fill="#b9ba77" d="M 873.410156 567.359375 C 849.894531 564.832031 831.1875 560.390625 807.65625 551.765625 C 763.214844 535.46875 749.515625 532.371094 718.519531 531.605469 C 687.925781 530.847656 678.09375 532.628906 644.824219 544.929688 C 625.304688 552.144531 611.496094 554.289062 588.917969 553.597656 C 561 552.75 541.855469 548.113281 499.78125 532.007812 C 459.492188 516.59375 445.515625 513.273438 420.875 513.3125 C 377.488281 513.382812 341.609375 527.34375 312.484375 555.511719 C 308.609375 559.261719 304.84375 562.332031 304.125 562.332031 C 301.390625 562.332031 299.816406 560.800781 299.816406 558.15625 C 299.816406 555.941406 300.671875 554.757812 305.816406 549.863281 C 324.453125 532.132812 343.179688 520.769531 365.953125 513.367188 C 394.53125 504.066406 424.8125 502.15625 452.980469 507.875 C 462.0625 509.714844 486.289062 517.140625 491.148438 519.570312 C 492.363281 520.179688 493.476562 520.546875 493.628906 520.390625 C 493.785156 520.234375 491.109375 517.691406 487.6875 514.726562 C 477.679688 506.0625 470.839844 497.617188 460.164062 480.722656 C 451.988281 467.789062 448.625 459.757812 444.601562 443.589844 C 440.410156 426.742188 439.597656 419.75 440.0625 404.203125 C 440.417969 392.0625 440.78125 388.992188 442.800781 380.933594 C 446.984375 364.308594 451.796875 351.328125 457.34375 341.714844 C 480.640625 301.324219 518.144531 272.292969 560.085938 262.191406 C 563.902344 261.269531 567.660156 260.179688 568.449219 259.761719 C 571.273438 258.246094 572.875 254.363281 572.882812 249.023438 C 572.882812 243.078125 569.804688 215.46875 567.058594 196.824219 C 565.996094 189.59375 564.242188 177.625 563.164062 170.222656 C 559.515625 145.113281 554.632812 124.382812 550.378906 115.894531 C 548.414062 111.980469 541.589844 105.398438 537.183594 103.164062 C 532.464844 100.773438 529.703125 100.804688 524.789062 103.292969 C 512.96875 109.28125 474.609375 113.410156 460.871094 110.179688 C 454.921875 108.769531 452.320312 107.480469 449.195312 104.347656 C 447.238281 102.390625 446.792969 101.3125 446.792969 98.550781 C 446.792969 88.171875 463.964844 81.914062 492.445312 81.921875 C 505.757812 81.921875 512.96875 82.792969 524.773438 85.84375 C 537.390625 89.105469 542.765625 91.890625 549.417969 98.621094 C 555.683594 104.957031 559.886719 112.601562 563.226562 123.777344 C 565.902344 132.710938 571.023438 157.707031 572.480469 168.976562 C 573.144531 174.082031 574.171875 180.875 574.769531 184.0625 C 575.371094 187.25 576.425781 195.78125 577.105469 203.011719 C 577.785156 210.246094 579.015625 220.511719 579.835938 225.832031 C 580.648438 231.15625 581.53125 238.289062 581.792969 241.691406 C 582.90625 256.050781 583.601562 256.699219 599.367188 258.035156 C 614.910156 259.34375 622.976562 259.28125 610.648438 257.9375 C 598.726562 256.644531 594.433594 255.546875 590.6875 252.832031 C 588.328125 251.121094 587.578125 250.054688 587.578125 248.40625 C 587.578125 241.800781 599.375 238.164062 632.996094 234.390625 C 653.539062 232.089844 676.59375 230.945312 701.679688 231 C 747.472656 231.085938 767.894531 235.898438 767.789062 246.589844 C 767.78125 248.152344 767.269531 250.292969 766.660156 251.359375 C 764.753906 254.6875 765.304688 256.457031 769.832031 261.566406 C 775.339844 267.761719 777.273438 271.976562 779.753906 283.199219 C 784.820312 306.050781 784.0625 327.496094 777.707031 340.949219 C 774.875 346.941406 771.4375 350.925781 766.234375 354.269531 C 764.128906 355.621094 762.402344 357.046875 762.402344 357.441406 C 762.402344 359.257812 767.875 359.660156 792.820312 359.667969 C 807.363281 359.667969 821.347656 360.007812 823.902344 360.425781 C 835.414062 362.3125 843.644531 369.265625 849.785156 382.292969 C 854.140625 391.539062 866.941406 420.902344 873.65625 437.015625 C 883.464844 460.585938 886.183594 466.496094 888.316406 468.925781 C 889.800781 470.613281 894.429688 470.6875 899.578125 469.125 C 905.945312 467.199219 920.882812 465.46875 931.8125 465.398438 C 947.75 465.304688 955.019531 467.941406 955.019531 473.84375 C 955.019531 479.554688 952.105469 482.972656 943.796875 486.988281 C 930.257812 493.539062 910.789062 495.828125 900.097656 492.132812 C 889.769531 488.558594 882.273438 480.101562 875.792969 464.71875 C 873.953125 460.332031 870.515625 452.394531 868.171875 447.070312 C 865.828125 441.75 859.46875 426.960938 854.046875 414.195312 C 843.242188 388.761719 841.042969 384.074219 837.355469 378.613281 C 834.703125 374.675781 829.457031 370.882812 825.078125 369.738281 C 823.578125 369.34375 805.414062 368.75 784.707031 368.410156 L 747.058594 367.78125 L 745.0625 365.910156 C 743.960938 364.875 743.066406 363.566406 743.066406 363.007812 C 743.066406 362.445312 742.5625 361.980469 741.945312 361.980469 C 739.738281 361.980469 739.722656 366.929688 741.90625 376.042969 C 744.410156 386.535156 745.339844 395.3125 745.363281 408.78125 C 745.378906 421.761719 741.578125 441.679688 736.851562 453.40625 C 726.179688 479.894531 709.292969 502.15625 687.167969 518.9375 C 683.011719 522.09375 679.726562 524.777344 679.859375 524.90625 C 679.996094 525.046875 682 524.808594 684.3125 524.382812 C 691.453125 523.074219 721.582031 522.585938 732.976562 523.59375 C 756.285156 525.660156 772.320312 529.632812 802.628906 540.875 C 827.003906 549.917969 841.679688 554.03125 859.484375 556.824219 C 909.511719 564.683594 960.875 558.371094 1016.820312 537.484375 C 1027.652344 533.441406 1030.054688 533.625 1030.054688 538.492188 C 1030.054688 541.246094 1028.640625 542.152344 1018.050781 546.132812 C 991.511719 556.128906 963.375 563.152344 935.683594 566.695312 C 922.839844 568.335938 886.144531 568.730469 873.410156 567.359375 Z M 606.53125 544.464844 C 644.140625 539.890625 686.503906 515.917969 708.230469 486.910156 C 714.90625 477.992188 722.078125 465.96875 724.839844 459.0625 C 726.03125 456.085938 727.632812 452.085938 728.390625 450.167969 C 729.15625 448.246094 731.050781 441.640625 732.597656 435.46875 L 735.414062 424.253906 L 735.160156 403.367188 C 734.910156 382.929688 734.859375 382.339844 732.746094 375.90625 C 729.859375 367.109375 725.945312 363.589844 723.457031 367.550781 C 722.835938 368.53125 723.175781 371.039062 724.847656 377.605469 C 726.875 385.582031 727.097656 387.847656 727.429688 403.449219 C 727.855469 423.601562 727.460938 426.511719 722.101562 442.726562 C 715.820312 461.714844 709.335938 473.636719 698.484375 486.113281 C 672.988281 515.449219 634.875 530.59375 591.058594 528.808594 C 577.003906 528.234375 572.222656 527.492188 559.863281 523.964844 C 545.027344 519.742188 526.761719 510.976562 515.636719 502.761719 C 508.15625 497.230469 494.140625 482.460938 488.765625 474.457031 C 479.777344 461.074219 472.21875 443.871094 468.84375 429.125 C 466.144531 417.296875 465.882812 387.609375 468.375 374.746094 C 470.695312 362.785156 478.691406 344.375 486.890625 332.128906 C 504.210938 306.261719 530.863281 287.625 562.050781 279.582031 C 566.515625 278.4375 570.957031 277.003906 571.90625 276.402344 C 576.71875 273.382812 576.828125 267.605469 572.0625 267.605469 C 567.140625 267.605469 551.058594 272.496094 538.84375 277.699219 C 518.925781 286.195312 495.804688 304.03125 481.308594 322.089844 C 475.738281 329.027344 467.660156 341.363281 463.292969 349.601562 C 457.9375 359.707031 452.183594 378.394531 450.78125 390.214844 C 450.378906 393.617188 450.125 403.882812 450.21875 413.035156 C 450.355469 427.167969 450.636719 430.710938 452.082031 436.628906 C 458.441406 462.636719 469.601562 483.273438 487.394531 501.917969 C 500.5 515.65625 517.085938 526.996094 535.363281 534.707031 C 553.90625 542.53125 586.109375 546.945312 606.53125 544.464844 Z M 623.503906 519.042969 C 648.382812 514.023438 668.175781 504 684.546875 488.117188 C 706.972656 466.363281 717.539062 439.722656 717.539062 404.96875 C 717.539062 395.917969 716.183594 381.605469 715.054688 378.726562 C 714.273438 376.730469 713.925781 376.5625 711.417969 376.972656 C 709.886719 377.210938 703.421875 379.710938 697.039062 382.503906 C 690.65625 385.304688 678.472656 390.578125 669.964844 394.214844 C 655.4375 400.433594 651.714844 401.988281 635.175781 408.75 C 625.121094 412.867188 617.832031 415.15625 609.503906 416.808594 C 591.964844 420.300781 585.535156 419.773438 579.371094 414.351562 C 570.335938 406.390625 570.753906 394.71875 580.292969 388.398438 C 584.375 385.699219 588.925781 384.792969 595.183594 385.433594 L 599.53125 385.882812 L 597.007812 383.910156 C 591.625 379.703125 588.269531 369.730469 586.347656 352.3125 C 585.691406 346.355469 584.46875 336.257812 583.625 329.878906 C 582.785156 323.496094 581.585938 312.898438 580.957031 306.324219 C 579.71875 293.320312 579.015625 289.847656 577.050781 287.054688 C 575.859375 285.351562 575.425781 285.257812 571.101562 285.746094 C 555.980469 287.464844 533.304688 298.425781 516.210938 312.285156 C 496.671875 328.136719 483.289062 350.878906 477.570312 377.953125 C 476.039062 385.203125 475.808594 388.511719 475.847656 402.207031 C 475.886719 415.457031 476.171875 419.347656 477.578125 425.875 C 483.101562 451.519531 496.074219 474.472656 513.9375 490.207031 C 528.441406 502.984375 546.261719 512.335938 565.121094 517.046875 C 571.535156 518.648438 575.449219 519.355469 586.417969 520.886719 C 592.359375 521.722656 616.101562 520.539062 623.503906 519.042969 Z M 923.304688 484.929688 C 932.511719 483.445312 945.621094 478.386719 945.714844 476.28125 C 945.730469 475.972656 944.429688 475.160156 942.835938 474.488281 C 937.625 472.28125 911.105469 473.605469 893.273438 476.960938 C 888.929688 477.773438 894.613281 482.59375 902.417969 484.707031 C 906.78125 485.882812 916.714844 485.988281 923.304688 484.929688 Z M 597.378906 408.859375 C 599.746094 406.105469 600.847656 401.84375 599.863281 399.234375 C 596.105469 389.316406 582.164062 390.78125 582.164062 401.097656 C 582.164062 405.734375 583.253906 408.132812 586.210938 409.980469 C 589.714844 412.183594 594.972656 411.652344 597.378906 408.859375 Z M 613.878906 408.355469 C 619.535156 406.894531 642.425781 397.601562 678.085938 382.292969 C 698.050781 373.722656 702.507812 371.261719 698.050781 371.261719 C 695.195312 371.269531 682.984375 373.523438 674.992188 375.511719 C 670.945312 376.523438 665.382812 377.738281 662.613281 378.226562 C 659.84375 378.703125 649.402344 380.800781 639.40625 382.882812 C 629.414062 384.972656 618.265625 387.050781 614.652344 387.523438 C 603.320312 389 603.097656 389.171875 605.0625 394.972656 C 605.726562 396.921875 606.261719 400.644531 606.246094 403.234375 C 606.222656 408.230469 607.121094 410.203125 609.152344 409.617188 C 609.84375 409.421875 611.960938 408.851562 613.878906 408.355469 Z M 637.472656 375.957031 C 647.683594 373.832031 665.617188 370.035156 677.3125 367.527344 C 689.007812 365.011719 699.855469 362.730469 701.410156 362.445312 C 705.175781 361.773438 708.253906 359.257812 708.253906 356.867188 C 708.253906 354.199219 705.980469 349.960938 698.539062 338.742188 C 688.089844 322.984375 676.277344 311.519531 660.261719 301.574219 C 650.59375 295.5625 642.617188 292.066406 630.550781 288.554688 C 617.515625 284.761719 609.347656 283.585938 598.773438 283.972656 C 586.929688 284.414062 585.683594 286.234375 587.875 299.855469 C 588.546875 304.03125 589.46875 311.621094 589.921875 316.726562 C 590.378906 321.832031 591.230469 328.972656 591.820312 332.585938 C 592.40625 336.199219 593.457031 343.863281 594.15625 349.601562 C 595.460938 360.394531 597.742188 370.828125 599.546875 374.304688 C 600.675781 376.476562 603.539062 379.300781 605.371094 380.050781 C 607.992188 381.132812 619.96875 379.601562 637.472656 375.957031 Z M 724.050781 356.867188 C 726.324219 355.992188 725.488281 351.210938 721.886719 344.503906 C 703.859375 310.933594 672.902344 284.65625 637.859375 273.167969 C 622.769531 268.226562 613.8125 266.585938 599.855469 266.238281 C 591.152344 266.011719 586.457031 266.191406 585.351562 266.785156 C 582.078125 268.535156 584.230469 274.011719 588.523438 274.886719 C 589.496094 275.085938 595.855469 275.433594 602.664062 275.660156 C 611.863281 275.96875 617.152344 276.5625 623.269531 277.972656 C 642.339844 282.359375 659.070312 290.125 674.417969 301.71875 C 691.714844 314.777344 702.847656 327.765625 713.707031 347.539062 C 718.28125 355.878906 720.777344 358.128906 724.050781 356.867188 Z M 750.5625 350.800781 C 761.636719 347.894531 765.179688 345.472656 768.570312 338.496094 C 771.617188 332.214844 772.453125 326.289062 772.445312 310.925781 C 772.445312 283.519531 768.746094 270.167969 759.695312 264.859375 C 752.527344 260.652344 749.925781 260.496094 690.464844 260.761719 C 660.472656 260.890625 634.363281 260.730469 632.445312 260.394531 C 630.039062 259.972656 633.035156 261.550781 642.117188 265.488281 C 671.472656 278.21875 685.753906 287.617188 703.691406 306.011719 C 714.605469 317.207031 725.257812 332.328125 730.355469 343.855469 C 734.417969 353.039062 737.726562 354.175781 750.5625 350.800781 Z M 626.820312 259.40625 C 626.566406 259.144531 625.894531 259.121094 625.335938 259.34375 C 624.71875 259.59375 624.902344 259.769531 625.808594 259.808594 C 626.621094 259.839844 627.078125 259.660156 626.820312 259.40625 Z M 751.511719 248.972656 C 755.945312 247.941406 759.695312 246.734375 759.84375 246.269531 C 760.355469 244.753906 756.015625 243.523438 743.089844 241.535156 C 732.265625 239.867188 726.828125 239.511719 707.683594 239.199219 C 674.96875 238.683594 624.191406 241.894531 612.589844 245.210938 C 609.6875 246.039062 605.742188 246.726562 603.824219 246.734375 C 599.972656 246.742188 597.179688 247.863281 599.207031 248.59375 C 599.832031 248.816406 605.1875 249.351562 611.09375 249.78125 C 617.011719 250.207031 622.050781 250.757812 622.289062 250.996094 C 622.527344 251.246094 649.890625 251.300781 683.089844 251.136719 L 743.453125 250.828125 Z M 485.46875 102.828125 C 497.320312 102.015625 502.488281 101.34375 515.636719 98.882812 C 525.964844 96.957031 529.5625 95.992188 529.5625 95.132812 C 529.5625 94.382812 525.222656 93.355469 514.160156 91.496094 C 503.609375 89.734375 481.277344 89.71875 471.160156 91.472656 C 462.449219 92.988281 455.300781 95.992188 455.300781 98.132812 C 455.300781 99.851562 459.609375 101.832031 465.355469 102.753906 C 471.257812 103.695312 472.738281 103.695312 485.46875 102.828125 Z M 485.46875 102.828125 " fill-opacity="1" fill-rule="nonzero"/></g></svg>