<?xml version="1.0" standalone="no"?>
<!DOCTYPE svg PUBLIC "-//W3C//DTD SVG 1.1//EN" "http://www.w3.org/Graphics/SVG/1.1/DTD/svg11.dtd">
<svg xmlns="http://www.w3.org/2000/svg" id="Layer_1" version="1.1" viewBox="0 0 1080 1080" width="1080" height="1080">
  <!-- Generator: Adobe Illustrator 30.2.1, SVG Export Plug-In . SVG Version: 2.1.1 Build 1)  -->
  <defs>
    <style>
      .st0 {
        fill: #b9ba77;
      }
    </style>
  </defs>
  <path class="st0" d="M734,323.7c-13.7-.5-32.3-.9-54.6-1.1-5.6-2.2-72.2,2.8-43.1-8.4,30.6-12.8,67.5-19.3,94.6-39.9,28.6-20,37.2-70.2-.7-84.9-28.1-10.9-59.4-.8-85.8,10.7-43.5,18.4-73.2,57.6-107.3,88.3-17.3,15.4-28.8-9-39.5-19.9-37.2-41.2-110.4-83.1-167.4-77.1-53.7,9.9-59.8,53.2-16.6,83.6,29.8,23.3,68.1,31.3,105,36,14.5,1.6,98.6,16.8,38.8,17.2-50.2,2.8-101.3,11.7-147.5,31.8-34.1,13.4-59,37.6-69.6,73-14,41.3,21.7,61.6,11.7,76.9-26.3,33.3-57,78.8-71,128.2-7.1,25.7-13.2,47.5-6.2,74.2,10.7,42,36.8,61.4,86.1,64.7,45.7,6.6,85.4-8.4,121-34.8,16.1-11,25.7-20.4,30.1-24.9,6-6.2,2.2-3.2,18.6-22.3,10.4-12.2,14.9-16.8,13.2-21-1.4-3.7-6.7-6-10.9-5.5-4.8.5-6.9,4.4-13.2,11.7-5.1,5.8-10.9,10.9-16.4,16.4-9.9,9.6-47.9,45.6-64.2,52.1-18,9-33.6,11.4-38.6,12.1-27.5,3-45.6-1.7-64.7-8.3-12-4.2-18-6.3-23.8-11.6-19.2-16.8-21-56.2-15.8-79.7,2.7-15.4,9.7-52.3,38.7-90.4,10.9-14.4,36.4-47.9,58.1-44.9,3.2.4,12.9,1.5,28.4,4.3,24,3.4,64.7.9,77.9-23.1,6.5-14.4-6.8-27.2-21.2-28.2-25.2-2.9-49.5,9.4-73,15.1-28.3,5.6-52.4-22.8-45.7-50.2,6-40,43.5-61.3,78.8-72.2,30.7-9.5,58.9-20.5,136.7-25.8,0,0,122.2-7.1,259.9-2.4,13.6.5,20.4.7,25.4,1.3,7.7.9,19.8,2.8,35.9,3.3,7.8.3,13.2,0,16-3.6,2.2-2.9,2.8-7.7,1-11.2-3.8-7.2-15.9-6.5-40.5-7.4-23.1-.9-3.9-1.1-38.2-2.3ZM318,505.4l6.3-2.4c10.4-3.4,48.5-14,58.3-9,10.2,5.5-14,16.8-22.4,17-7.8,1.3-15.7,2.3-23.6,2.2-12.9-.2-30.8-3.7-18.7-7.8ZM498.8,303.3c-6.7,7.9-31.6-1.7-41.3-3.5-37-9.1-77.3-6.8-111.6-25.4-16.4-8.3-66-35.5-41.2-56.7,19.7-14.7,49.2-10.2,71.5-3.4,29.8,8.4,55.7,23.5,81.1,40.2,9.7,6.5,49.4,36.3,41.5,48.9ZM566.1,311.8c-6.4.5-20.6,2.7-24.8-1.5-3.6-5,6.8-14.7,10.4-18.5,36-33.5,72.7-68.7,120.3-84.8,21.8-6.9,55.7-11.4,66.7,12.7,7,16.8-5.8,32.2-19.8,40.3-25,15.6-53.4,23-80.6,33.4-23.1,8.8-47.3,16.5-72.1,18.5Z"/>
  <path class="st0" d="M903.8,560.2s-7.5,7.8-21,18.3c-6.4,4.9-6,3.5-29.2,16.1-10.3,5.4-31.2,17.7-49.7,26.4-7,2.9-26.6,10.9-33.1,3.6-3.8-3.7-1.2-13.5,4.6-25.8,2.4-6.7,7.1-16.5,11.5-26.9,8.2-19.3-15.5-36-31-21.9-2.5,2.3-4.9,4.2-7.1,5.3-43.8,29.3-85.8,62.8-135.3,82.6-30.7,14.6-87.9,21.2-99.9-19.3-2.4-13.9,1-31.8,10.1-42,15.5-15,41-8.1,60.8-10.5,37.6-2.4,74.2-7.1,110.7-15.9,43.4-12.5,85.5-32.4,116.3-66.2,19.4-21.6,35.1-55.9,17.8-83.2-9.8-16.6-24.9-29.9-43.6-34.2-51.9-9.5-103.9,9.6-145.7,40-27.5,19.3-54.2,39.2-76.1,64.7-12.2,14.6-24.4,29.5-34.9,45.4-10.1,16.7-24.3,31.8-45.1,32-26.4.5-54.7.8-79.5,9.4-32.9,11.4-57.9,21.8-70.2,29.9-34.1,22.3-71.1,60.9-63,77.4,2.2,4.4,7.8,7.8,12.5,7.3,8-.8,12.3-12.8,16.7-21.5,7.5-14.9,17.9-23.6,38.6-41,24.4-20.6,51.6-35.3,109.6-38.7,13.9-.8,38.4-7.7,44.2,8.6.6,1.7.9,3.5,1,5.3.6,13.7-3.9,28.2.3,41.5,12.4,44.4,66.7,48.5,104.6,39.5,42.6-12.4,79.9-38.4,117.8-61,9.6-4.7,49.9-38.9,38.2-9.3-24.6,63.9-22.9,37.4-76.2,66-55.9,29.9-115.9,54.8-165.7,94.2-29.2,25.9-74.3,74.6-49.8,116.5,16.5,24.9,58.2,22.7,74.2,21.9,93.2-4.8,185.3-181.5,198.6-207.9,4.3-7,10.2-13.9,15-20.7,2.2-2.9,5.1-5.2,8.5-6.5,42.7-16.6,77-33.1,101.9-46.2,54.5-28.5,70.3-43.4,68.3-54.6-.9-4.9-5.1-11.3-10-11.8-4.7-.5-7.8,4.7-15.7,12.9ZM548.7,516.7c14.7-19.8,31.9-38.4,50.7-54.2,12.9-10.6,26.5-20.1,40.1-30,21.7-15.3,43.6-30,69.1-38.6h.2c22.7-7.5,48.1-12.9,72.1-8.3,21,4.8,42.1,21.4,39.2,44.7-2.3,20.9-13.1,38.6-29.7,51.3-41.7,35-94.5,49.6-147,60.2-11.3,2.3-23,3.1-34.5,3.4-16.2.5-32.3,1.4-48.5,2-31.1,1.5-26.3-10.9-11.6-30.4ZM712.6,695.6c-11.7,19.9-20.9,40.1-32.9,59.8-20.5,33.2-47.6,62-79.5,84.4-27.3,18.5-58.2,41.9-93.1,40.1-21.8-1.1-38.1-14.8-34.9-37.8,4.8-33.5,43.9-66.5,71.4-84,19.8-12.9,40.8-24.3,61.5-35.6,28.4-16.5,58.4-30.1,88.7-42.9,5.9-2.5,15-5.9,20.1-5.4,10.6,1.2,1.7,15.8-1.2,21.5Z"/>
  <path class="st0" d="M853.2,752c0,1.7-.4,6.3-3.7,10.4-2.3,2.9-5,4.2-7.3,5.2-3.7,1.7-9.2,4.3-15.2,2.3-6.5-2.2-9.2-8-10.9-11.6-1.1-2.4-2.5-5.4-2.3-9.5.4-6.6,4.7-10.7,5.9-11.8.7-.6,3.7-3.3,8.6-4.3,6.9-1.5,14.6.9,19.5,6.1,1.2,1.2,5.4,6,5.3,13.1Z"/>
</svg>